# xmcd CD database file
#
# Track frame offsets:
#	150
#	18639
#	36902
#	67780
#	85514
#	112586
#	145429
#	160700
#	193124
#	227093
#	242957
#	260088
#	271181
#	299749
#	332643
#
# Disc length: 4651 seconds
#
# Revision: 0
# Processed by: cddbd v1.5.1PL0 Copyright (c) Steve Scherf et al.
# Submitted via: CDex 1.51
#
DISCID=d412290f
DTITLE=Bill Evans - 75th Birthday Celebration Disc 2 - 1969-1980 - Quiet Light
DYEAR=2004
DGENRE=Jazz
TTITLE0=How My Heart Sings
TTITLE1=Hullo Bolinas
TTITLE2=See Saw
TTITLE3=Blue In Green
TTITLE4=T.T.T. - Twelve Tone Tune
TTITLE5=Hi Lili, Hi Lo (For Elaine)
TTITLE6=The Summer Knows
TTITLE7=Make Someone Happy
TTITLE8=A Child Is Born
TTITLE9=Ev'ry Time We Say Goodbye
TTITLE10=Orson's Theme
TTITLE11=Quiet Light
TTITLE12=You and th Night and the Music
TTITLE13=Nardis
TTITLE14=But Beautiful
EXTD=YEAR: 2004
EXTT0=
EXTT1=
EXTT2=
EXTT3=
EXTT4=
EXTT5=
EXTT6=
EXTT7=
EXTT8=
EXTT9=
EXTT10=
EXTT11=
EXTT12=
EXTT13=
EXTT14=
PLAYORDER=
